<svg width="20" height="20" viewBox="0 0 20 20" fill="none" xmlns="http://www.w3.org/2000/svg">
<path d="M14.1406 0H5.85938C2.62852 0 0 2.62852 0 5.85938V14.1406C0 17.3715 2.62852 20 5.85938 20H14.1406C17.3715 20 20 17.3715 20 14.1406V5.85938C20 2.62852 17.3715 0 14.1406 0ZM19.2188 14.1406C19.2188 16.9407 16.9407 19.2188 14.1406 19.2188H5.85938C3.0593 19.2188 0.78125 16.9407 0.78125 14.1406V5.85938C0.78125 3.0593 3.0593 0.78125 5.85938 0.78125H14.1406C16.9407 0.78125 19.2188 3.0593 19.2188 5.85938V14.1406Z" fill="white"/>
<path d="M14.1406 1.71875H5.85938C3.57621 1.71875 1.71875 3.57621 1.71875 5.85938V14.1406C1.71875 16.4238 3.57621 18.2812 5.85938 18.2812H8.24219C8.45793 18.2812 8.63281 18.1064 8.63281 17.8906C8.63281 17.6749 8.45793 17.5 8.24219 17.5H5.85938C4.00703 17.5 2.5 15.993 2.5 14.1406V5.85938C2.5 4.00703 4.00703 2.5 5.85938 2.5H14.1406C15.993 2.5 17.5 4.00703 17.5 5.85938V14.1406C17.5 15.993 15.993 17.5 14.1406 17.5H11.7839C11.5681 17.5 11.3932 17.6749 11.3932 17.8906C11.3932 18.1064 11.5681 18.2812 11.7839 18.2812H14.1406C16.4238 18.2812 18.2812 16.4238 18.2812 14.1406V5.85938C18.2812 3.57621 16.4238 1.71875 14.1406 1.71875Z" fill="white"/>
<path d="M10.2762 17.6145C10.2035 17.5418 10.1027 17.5 10 17.5C9.89727 17.5 9.79648 17.5418 9.72383 17.6145C9.65117 17.6871 9.60938 17.7879 9.60938 17.8906C9.60938 17.9934 9.65117 18.0941 9.72383 18.1668C9.79648 18.2395 9.89727 18.2812 10 18.2812C10.1027 18.2812 10.2035 18.2395 10.2762 18.1668C10.3488 18.0941 10.3906 17.9934 10.3906 17.8906C10.3906 17.7879 10.3488 17.6871 10.2762 17.6145Z" fill="white"/>
<path d="M6.86837 6.08241C6.72083 5.92498 6.47368 5.91694 6.31622 6.0644L6.29891 6.08069C6.142 6.22874 6.13481 6.47596 6.28289 6.63288C6.35973 6.71432 6.46329 6.75542 6.56708 6.75542C6.66325 6.75542 6.75962 6.7201 6.83508 6.64889L6.85036 6.63456C7.00778 6.48706 7.01587 6.23983 6.86837 6.08241Z" fill="white"/>
<path d="M10 4.60938C9.14203 4.60938 8.28813 4.81605 7.53059 5.20707C7.33891 5.30602 7.26371 5.54164 7.36266 5.73336C7.46164 5.92504 7.69727 6.0002 7.88895 5.90129C8.54539 5.56242 9.25566 5.39062 10 5.39062C12.5416 5.39062 14.6094 7.4584 14.6094 10C14.6094 12.5416 12.5416 14.6094 10 14.6094C7.4584 14.6094 5.39062 12.5416 5.39062 10C5.39062 9.20238 5.59746 8.41652 5.98879 7.72742C6.09531 7.53984 6.02961 7.30141 5.84199 7.19484C5.65437 7.08836 5.41598 7.15402 5.30941 7.34164C4.85145 8.14812 4.60938 9.06738 4.60938 10C4.60938 12.9724 7.02762 15.3906 10 15.3906C12.9724 15.3906 15.3906 12.9724 15.3906 10C15.3906 7.02762 12.9724 4.60938 10 4.60938Z" fill="white"/>
<path d="M10 6.48438C8.06148 6.48438 6.48438 8.06148 6.48438 10C6.48438 11.9385 8.06148 13.5156 10 13.5156C11.9385 13.5156 13.5156 11.9385 13.5156 10C13.5156 8.06148 11.9385 6.48438 10 6.48438ZM10 12.7344C8.49227 12.7344 7.26562 11.5077 7.26562 10C7.26562 8.49227 8.49227 7.26562 10 7.26562C11.5077 7.26562 12.7344 8.49227 12.7344 10C12.7344 11.5077 11.5077 12.7344 10 12.7344Z" fill="white"/>
<path d="M15.127 3.38867C14.3085 3.38867 13.6426 4.05457 13.6426 4.87305C13.6426 5.69152 14.3085 6.35742 15.127 6.35742C15.9454 6.35742 16.6113 5.69152 16.6113 4.87305C16.6113 4.05457 15.9454 3.38867 15.127 3.38867ZM15.127 5.57617C14.7393 5.57617 14.4238 5.26074 14.4238 4.87305C14.4238 4.48535 14.7393 4.16992 15.127 4.16992C15.5146 4.16992 15.8301 4.48535 15.8301 4.87305C15.8301 5.26074 15.5146 5.57617 15.127 5.57617Z" fill="white"/>
</svg>
