<svg width="29" height="29" viewBox="0 0 29 29" fill="none" xmlns="http://www.w3.org/2000/svg">
<path d="M28.1246 10.7538C28.1216 10.7215 28.1152 10.6896 28.1053 10.6586C28.0989 10.631 28.0899 10.604 28.0786 10.578C28.0655 10.5525 28.0498 10.5285 28.0317 10.5062C28.0137 10.4798 27.9927 10.4554 27.9694 10.4335C27.9619 10.427 27.9586 10.418 27.9507 10.4115L23.4416 6.90959V3.28016C23.4416 2.50336 22.8118 1.87358 22.035 1.87358H16.954L14.9195 0.293981C14.417 -0.0979937 13.7122 -0.0979937 13.2096 0.293981L11.1747 1.87358H6.09369C5.31688 1.87358 4.6871 2.5033 4.6871 3.28016V6.90964L0.179504 10.4115C0.171537 10.4181 0.16824 10.427 0.160768 10.4336C0.137416 10.4554 0.116483 10.4798 0.0984058 10.5063C0.080384 10.5285 0.0646698 10.5525 0.051538 10.578C0.0401645 10.604 0.0312635 10.631 0.024835 10.6587C0.0150548 10.6892 0.0086263 10.7206 0.00560435 10.7525C0.00560435 10.7623 0 10.7708 0 10.7806V26.7232C0.000659335 27.0214 0.0971421 27.3115 0.275218 27.5507C0.27802 27.5549 0.278514 27.5601 0.281756 27.5638C0.285053 27.5675 0.292086 27.5718 0.296756 27.5769C0.56016 27.9235 0.969827 28.1279 1.40515 28.1297H26.7236C27.1607 28.1284 27.572 27.9231 27.8358 27.5746C27.8395 27.57 27.8452 27.5685 27.8484 27.5639C27.8517 27.5592 27.8521 27.555 27.855 27.5507C28.0331 27.3115 28.1296 27.0214 28.1302 26.7232V10.7819C28.1302 10.7721 28.125 10.7636 28.1246 10.7538ZM13.783 1.03381C13.9468 0.903701 14.1786 0.903701 14.3424 1.03381L15.424 1.87353H12.7046L13.783 1.03381ZM1.52328 27.1921L13.7831 17.669C13.9469 17.5391 14.1786 17.5391 14.3424 17.669L26.6054 27.1921H1.52328ZM27.1925 26.4611L14.9195 16.9291C14.4169 16.5375 13.7123 16.5375 13.2096 16.9291L0.936256 26.4611V11.496L8.61949 17.4622C8.82421 17.621 9.11883 17.5837 9.27756 17.379C9.4363 17.1743 9.39904 16.8797 9.19432 16.7209L1.38872 10.66L4.68716 8.09672V11.7196C4.68716 11.9786 4.8971 12.1884 5.156 12.1884C5.41496 12.1884 5.62484 11.9785 5.62484 11.7196V3.28011C5.62484 3.02116 5.83473 2.81127 6.09369 2.81127H22.0349C22.2939 2.81127 22.5038 3.02116 22.5038 3.28011V11.7196C22.5038 11.9786 22.7137 12.1884 22.9726 12.1884C23.2316 12.1884 23.4415 11.9785 23.4415 11.7196V8.09672L26.7399 10.66L18.9207 16.7318C18.7862 16.8337 18.7168 17.0001 18.7391 17.1674C18.7614 17.3347 18.8719 17.4771 19.0285 17.5402C19.185 17.6033 19.3634 17.5775 19.4956 17.4725L27.1924 11.496V26.4611H27.1925Z" fill="white"/>
<path d="M19.6907 11.2508V9.37535C19.6907 6.26801 17.1717 3.74902 14.0644 3.74902C10.957 3.74902 8.43805 6.26801 8.43805 9.37535C8.43805 12.4827 10.957 15.0017 14.0644 15.0017C14.3233 15.0017 14.5332 14.7918 14.5332 14.5328C14.5332 14.2739 14.3233 14.064 14.0644 14.064C11.4749 14.064 9.37579 11.9648 9.37579 9.37541C9.37579 6.78598 11.4749 4.68682 14.0644 4.68682C16.6538 4.68682 18.753 6.78598 18.753 9.37541V11.2508C18.753 11.7687 18.3331 12.1886 17.8152 12.1886C17.2973 12.1886 16.8775 11.7687 16.8775 11.2508V9.37541C16.8775 9.11645 16.6676 8.90656 16.4086 8.90656C16.1497 8.90656 15.9398 9.11645 15.9398 9.37541C15.9398 10.4112 15.1001 11.2508 14.0644 11.2508C13.0286 11.2508 12.189 10.4112 12.189 9.37541C12.189 8.33965 13.0286 7.49998 14.0644 7.49998C14.3233 7.49998 14.5332 7.29009 14.5332 7.03114C14.5332 6.77219 14.3233 6.5623 14.0644 6.5623C12.8053 6.5595 11.6977 7.39361 11.3526 8.60448C11.0076 9.81535 11.5091 11.108 12.5805 11.7693C13.6519 12.4307 15.0322 12.2996 15.96 11.4483C16.0621 12.4398 16.9239 13.1771 17.9192 13.1244C18.9147 13.0716 19.6938 12.2476 19.6907 11.2508Z" fill="white"/>
</svg>
