<svg width="28" height="29" viewBox="0 0 28 29" fill="none" xmlns="http://www.w3.org/2000/svg">
<path d="M8.23921 16.2643C9.5246 16.2477 10.8016 15.9225 11.9321 15.3239C11.9352 15.3223 11.9414 15.3201 11.9478 15.3231C12.5278 15.5971 13.6461 16.0376 14.619 15.909C14.8599 15.8772 15.0652 15.7171 15.1549 15.4911C15.2444 15.2658 15.205 15.0092 15.052 14.8215C14.8341 14.5538 14.515 14.1114 14.232 13.5235C14.2301 13.5195 14.2317 13.5114 14.2377 13.5045C15.535 12.0313 16.2548 10.1383 16.2647 8.17417C16.2741 6.298 15.6266 4.46272 14.4414 3.00652C14.2977 2.83 14.0381 2.80335 13.8615 2.94701C13.685 3.09072 13.6583 3.35033 13.802 3.52686C14.867 4.83532 15.4488 6.4843 15.4404 8.16999C15.4315 9.93493 14.7846 11.6359 13.619 12.9596C13.3938 13.2154 13.3429 13.5769 13.4891 13.8809C13.7353 14.3923 14.0065 14.8066 14.2307 15.1079C13.4934 15.101 12.6548 14.7454 12.2999 14.5777C12.0616 14.4651 11.7799 14.4717 11.5464 14.5953C10.5165 15.1407 9.40018 15.4248 8.2285 15.44C6.30374 15.4653 4.46505 14.7211 3.05299 13.3459C1.64076 11.9705 0.849496 10.153 0.824876 8.22819C0.79965 6.25717 1.54783 4.39973 2.93154 2.99823C4.31568 1.59639 6.16267 0.824353 8.13238 0.824353C9.712 0.824353 11.2166 1.32243 12.4836 2.26466C12.6662 2.40051 12.9244 2.36259 13.0603 2.17992C13.1962 1.99724 13.1582 1.73905 12.9756 1.6032C11.5653 0.55435 9.89056 0 8.13238 0C5.94048 0 3.88515 0.85914 2.34504 2.41909C0.805201 3.97877 -0.027395 6.04553 0.000687903 8.23874C0.0281114 10.3839 0.907916 12.4074 2.47798 13.9365C4.02232 15.4405 6.02742 16.265 8.13501 16.2649C8.16958 16.2649 8.20453 16.2647 8.23921 16.2643Z" fill="white"/>
<path d="M10.6722 8.1291C10.6722 8.93235 11.3257 9.58585 12.1289 9.58585C12.9322 9.58585 13.5857 8.93235 13.5857 8.1291C13.5857 7.32586 12.9322 6.67236 12.1289 6.67236C11.3257 6.67236 10.6722 7.32586 10.6722 8.1291ZM12.7613 8.1291C12.7613 8.47781 12.4776 8.76149 12.1289 8.76149C11.7802 8.76149 11.4965 8.47781 11.4965 8.1291C11.4965 7.7804 11.7802 7.49672 12.1289 7.49672C12.4776 7.49672 12.7613 7.7804 12.7613 8.1291Z" fill="white"/>
<path d="M6.67572 8.1291C6.67572 8.93235 7.32921 9.58585 8.13246 9.58585C8.93571 9.58585 9.5892 8.93235 9.5892 8.1291C9.5892 7.32586 8.93571 6.67236 8.13246 6.67236C7.32921 6.67236 6.67572 7.32586 6.67572 8.1291ZM8.76485 8.1291C8.76485 8.47781 8.48116 8.76149 8.13246 8.76149C7.78376 8.76149 7.50007 8.47781 7.50007 8.1291C7.50007 7.7804 7.78376 7.49672 8.13246 7.49672C8.48116 7.49672 8.76485 7.7804 8.76485 8.1291Z" fill="white"/>
<path d="M2.67932 8.1291C2.67932 8.93235 3.33281 9.58585 4.13606 9.58585C4.93931 9.58585 5.5928 8.93235 5.5928 8.1291C5.5928 7.32586 4.93931 6.67236 4.13606 6.67236C3.33281 6.67236 2.67932 7.32586 2.67932 8.1291ZM4.76845 8.1291C4.76845 8.47781 4.48476 8.76149 4.13606 8.76149C3.78736 8.76149 3.50367 8.47781 3.50367 8.1291C3.50367 7.7804 3.78736 7.49672 4.13606 7.49672C4.48476 7.49672 4.76845 7.7804 4.76845 8.1291Z" fill="white"/>
<path d="M27.4165 9.23306C27.1905 9.20926 26.9872 9.3732 26.9632 9.59957C26.8704 10.477 26.6698 11.4333 26.367 12.4416C25.1817 16.3895 23.3363 19.7112 20.8822 22.3147C20.1967 23.0418 19.4366 23.7392 18.6569 24.3583C18.3848 24.5743 18.1075 24.7837 17.8254 24.9864C17.2432 25.4048 16.6405 25.7947 16.021 26.1554C14.429 27.0824 12.6415 27.4844 11.2393 27.2306C11.0106 27.1892 10.7905 27.1378 10.5779 27.0772C11.4976 26.3899 12.3085 25.6911 13.1983 24.8882C14.2116 23.9733 15.0986 23.1257 15.91 22.2969C15.9111 22.2957 15.912 22.2944 15.9131 22.2933C15.9143 22.292 15.9157 22.2909 15.9169 22.2897L16.3956 21.7766C19.3887 18.906 21.6175 15.4588 23.0212 11.5281C23.0212 11.5281 23.2798 10.7904 23.2803 10.7888C24.0281 8.62551 24.7151 6.33013 25.3259 3.95654C25.8342 4.48512 26.2423 5.11245 26.5425 5.82947C26.7358 6.29127 26.8726 6.8038 26.9491 7.35288C26.9804 7.57836 27.1886 7.73565 27.4142 7.70427C27.6397 7.67283 27.7969 7.46466 27.7656 7.23917C27.6793 6.61986 27.5236 6.03847 27.3029 5.51122C27.2484 5.38075 27.1901 5.25188 27.1282 5.12471C26.5745 3.98825 25.7464 3.14555 24.7427 2.40484C23.7515 1.67336 22.4394 1.11143 21.2282 1.64242C20.8329 1.81581 20.4953 2.09246 20.2261 2.46298C20.0587 2.69094 19.9194 2.95517 19.8126 3.24738C19.7885 3.31305 18.9764 5.88393 18.6714 7.15256C18.4337 8.14222 18.6301 8.86512 19.2892 9.42755C19.4797 9.59022 19.7067 9.73751 19.9832 9.8777C20.5664 10.1735 21.1752 10.4239 21.7835 10.669L22.0337 10.7699C22.0364 10.771 22.369 10.897 22.369 10.897L22.2442 11.2531C20.8833 15.0635 18.7209 18.4066 15.817 21.1894C15.8114 21.1947 15.806 21.2001 15.8007 21.2057L15.5981 21.4229C15.5981 21.4229 15.1674 20.9988 15.1673 20.9989C15.1318 20.9608 14.2694 20.0344 13.8058 19.6699C12.7035 18.8032 11.7707 18.7829 10.6868 19.6021C9.74615 20.3131 8.52869 21.2675 7.45527 22.3463C6.23732 23.5702 6.25364 24.8551 7.5038 26.1653C7.93796 26.6203 8.43015 26.9988 8.97576 27.3013C8.97521 27.3018 8.97472 27.3024 8.97422 27.3029C9.15706 27.4045 9.34573 27.4972 9.53984 27.5808C9.54781 27.5842 9.556 27.5869 9.56407 27.5898C10.0391 27.7924 10.5491 27.9434 11.0925 28.0418C11.4248 28.1019 11.7713 28.1315 12.1275 28.1315C13.5009 28.1315 15.0204 27.6919 16.4359 26.8678C17.0832 26.4909 17.7127 26.0832 18.3207 25.6456C18.627 25.4252 18.9277 25.1973 19.2225 24.9617C21.2125 23.3719 22.9327 21.3803 24.2759 19.2101C24.5565 18.7568 24.8215 18.2936 25.0707 17.8223C25.9371 16.1837 26.6238 14.453 27.1566 12.6786C27.4741 11.6213 27.6849 10.6145 27.7831 9.68618C27.8069 9.45992 27.6429 9.25702 27.4165 9.23306ZM22.3387 10.0023C21.8028 9.79318 21.2819 9.58044 20.7621 9.33874C20.4367 9.18739 20.0992 9.0351 19.8243 8.80049C19.4111 8.44795 19.3093 8.02626 19.4728 7.34524C19.7612 6.14641 20.5423 3.66467 20.5879 3.52777C20.668 3.30932 20.7699 3.11526 20.8918 2.94924C21.0751 2.69688 21.2997 2.51123 21.5593 2.39736C22.6218 1.93155 23.8071 2.69924 24.6221 3.32317C24.6262 3.32635 24.6304 3.32949 24.6345 3.33267C24.04 5.68675 23.3697 7.9657 22.6389 10.1177C22.5406 10.0804 22.4386 10.0413 22.3387 10.0023ZM9.3482 26.5661C9.34809 26.5671 9.34787 26.5681 9.34776 26.5691C8.88789 26.3105 8.47351 25.9875 8.10013 25.5962C7.15581 24.6066 7.13828 23.8334 8.03952 22.9278C9.07062 21.8915 10.2076 20.9976 11.1838 20.2598C11.9608 19.6726 12.4938 19.6872 13.2962 20.3181C13.7095 20.643 15.027 22.0178 15.027 22.0178C14.3076 22.7403 13.5253 23.4823 12.6459 24.2762C11.638 25.1858 10.7353 25.9577 9.65772 26.729C9.55226 26.6783 9.4496 26.6232 9.3482 26.5661Z" fill="white"/>
</svg>
